<mxfile host="app.diagrams.net" modified="2021-06-15T09:35:56.485Z" agent="5.0 (Macintosh; Intel Mac OS X 10_15_7) AppleWebKit/537.36 (KHTML, like Gecko) Chrome/91.0.4472.101 Safari/537.36" etag="ElsmhcA4pEW9ClZ60OzH" version="14.7.7" type="github">
  <diagram id="C5RBs43oDa-KdzZeNtuy" name="Page-1">
    <mxGraphModel dx="1426" dy="769" grid="1" gridSize="10" guides="1" tooltips="1" connect="1" arrows="1" fold="1" page="1" pageScale="1" pageWidth="3300" pageHeight="4681" math="0" shadow="0">
      <root>
        <mxCell id="WIyWlLk6GJQsqaUBKTNV-0" />
        <mxCell id="WIyWlLk6GJQsqaUBKTNV-1" parent="WIyWlLk6GJQsqaUBKTNV-0" />
        <mxCell id="o-zTbQR_hnsr74c10urs-8" style="edgeStyle=orthogonalEdgeStyle;rounded=0;orthogonalLoop=1;jettySize=auto;html=1;entryX=0.5;entryY=0;entryDx=0;entryDy=0;" edge="1" parent="WIyWlLk6GJQsqaUBKTNV-1" source="o-zTbQR_hnsr74c10urs-1" target="o-zTbQR_hnsr74c10urs-6">
          <mxGeometry relative="1" as="geometry">
            <Array as="points">
              <mxPoint x="1140" y="320" />
            </Array>
          </mxGeometry>
        </mxCell>
        <mxCell id="o-zTbQR_hnsr74c10urs-11" style="edgeStyle=orthogonalEdgeStyle;rounded=0;orthogonalLoop=1;jettySize=auto;html=1;entryX=0.5;entryY=0;entryDx=0;entryDy=0;" edge="1" parent="WIyWlLk6GJQsqaUBKTNV-1" source="o-zTbQR_hnsr74c10urs-1" target="o-zTbQR_hnsr74c10urs-7">
          <mxGeometry relative="1" as="geometry">
            <Array as="points">
              <mxPoint x="1140" y="320" />
              <mxPoint x="1470" y="320" />
            </Array>
          </mxGeometry>
        </mxCell>
        <mxCell id="o-zTbQR_hnsr74c10urs-1" value="yarn dev" style="rounded=1;whiteSpace=wrap;html=1;" vertex="1" parent="WIyWlLk6GJQsqaUBKTNV-1">
          <mxGeometry x="1080" y="190" width="120" height="60" as="geometry" />
        </mxCell>
        <mxCell id="o-zTbQR_hnsr74c10urs-2" value="&lt;font style=&quot;font-size: 48px&quot;&gt;现有webpack流程&lt;/font&gt;" style="text;html=1;align=center;verticalAlign=middle;resizable=0;points=[];autosize=1;strokeColor=none;" vertex="1" parent="WIyWlLk6GJQsqaUBKTNV-1">
          <mxGeometry x="1190" y="70" width="400" height="30" as="geometry" />
        </mxCell>
        <mxCell id="o-zTbQR_hnsr74c10urs-38" style="edgeStyle=orthogonalEdgeStyle;rounded=0;orthogonalLoop=1;jettySize=auto;html=1;entryX=0.5;entryY=0;entryDx=0;entryDy=0;" edge="1" parent="WIyWlLk6GJQsqaUBKTNV-1" source="o-zTbQR_hnsr74c10urs-5" target="o-zTbQR_hnsr74c10urs-37">
          <mxGeometry relative="1" as="geometry">
            <mxPoint x="1910" y="1080" as="targetPoint" />
            <Array as="points">
              <mxPoint x="1940" y="1050" />
              <mxPoint x="1330" y="1050" />
            </Array>
          </mxGeometry>
        </mxCell>
        <mxCell id="o-zTbQR_hnsr74c10urs-5" value="yarn app" style="rounded=1;whiteSpace=wrap;html=1;" vertex="1" parent="WIyWlLk6GJQsqaUBKTNV-1">
          <mxGeometry x="1880" y="190" width="120" height="60" as="geometry" />
        </mxCell>
        <mxCell id="o-zTbQR_hnsr74c10urs-15" style="edgeStyle=orthogonalEdgeStyle;rounded=0;orthogonalLoop=1;jettySize=auto;html=1;entryX=0.5;entryY=0;entryDx=0;entryDy=0;" edge="1" parent="WIyWlLk6GJQsqaUBKTNV-1" source="o-zTbQR_hnsr74c10urs-6" target="o-zTbQR_hnsr74c10urs-13">
          <mxGeometry relative="1" as="geometry" />
        </mxCell>
        <mxCell id="o-zTbQR_hnsr74c10urs-6" value="renderer" style="rounded=0;whiteSpace=wrap;html=1;" vertex="1" parent="WIyWlLk6GJQsqaUBKTNV-1">
          <mxGeometry x="790" y="350" width="120" height="60" as="geometry" />
        </mxCell>
        <mxCell id="o-zTbQR_hnsr74c10urs-21" style="edgeStyle=orthogonalEdgeStyle;rounded=0;orthogonalLoop=1;jettySize=auto;html=1;" edge="1" parent="WIyWlLk6GJQsqaUBKTNV-1" source="o-zTbQR_hnsr74c10urs-7" target="o-zTbQR_hnsr74c10urs-18">
          <mxGeometry relative="1" as="geometry" />
        </mxCell>
        <mxCell id="o-zTbQR_hnsr74c10urs-7" value="main" style="rounded=0;whiteSpace=wrap;html=1;" vertex="1" parent="WIyWlLk6GJQsqaUBKTNV-1">
          <mxGeometry x="1410" y="340" width="120" height="60" as="geometry" />
        </mxCell>
        <mxCell id="o-zTbQR_hnsr74c10urs-29" style="edgeStyle=orthogonalEdgeStyle;rounded=0;orthogonalLoop=1;jettySize=auto;html=1;entryX=0.5;entryY=0;entryDx=0;entryDy=0;" edge="1" parent="WIyWlLk6GJQsqaUBKTNV-1" source="o-zTbQR_hnsr74c10urs-13" target="o-zTbQR_hnsr74c10urs-28">
          <mxGeometry relative="1" as="geometry" />
        </mxCell>
        <mxCell id="o-zTbQR_hnsr74c10urs-33" value="&lt;span style=&quot;font-size: 12px ; background-color: rgb(248 , 249 , 250)&quot;&gt;渲染进程，有多个入口，并且有对应htm，实现压缩、混淆等l&lt;br&gt;实现替换名称的css以及js，进入引入&lt;br&gt;&lt;/span&gt;" style="edgeLabel;html=1;align=center;verticalAlign=middle;resizable=0;points=[];" vertex="1" connectable="0" parent="o-zTbQR_hnsr74c10urs-29">
          <mxGeometry x="-0.0667" y="-2" relative="1" as="geometry">
            <mxPoint as="offset" />
          </mxGeometry>
        </mxCell>
        <mxCell id="o-zTbQR_hnsr74c10urs-13" value="" style="rounded=0;whiteSpace=wrap;html=1;" vertex="1" parent="WIyWlLk6GJQsqaUBKTNV-1">
          <mxGeometry x="685" y="510" width="330" height="190" as="geometry" />
        </mxCell>
        <mxCell id="o-zTbQR_hnsr74c10urs-16" value="rules/plugins/externals/module" style="rounded=0;whiteSpace=wrap;html=1;" vertex="1" parent="WIyWlLk6GJQsqaUBKTNV-1">
          <mxGeometry x="715" y="620" width="270" height="60" as="geometry" />
        </mxCell>
        <mxCell id="o-zTbQR_hnsr74c10urs-17" value="entry:src/renderer/**/app.js" style="rounded=0;whiteSpace=wrap;html=1;" vertex="1" parent="WIyWlLk6GJQsqaUBKTNV-1">
          <mxGeometry x="715" y="540" width="270" height="60" as="geometry" />
        </mxCell>
        <mxCell id="o-zTbQR_hnsr74c10urs-31" style="edgeStyle=orthogonalEdgeStyle;rounded=0;orthogonalLoop=1;jettySize=auto;html=1;entryX=0.465;entryY=-0.011;entryDx=0;entryDy=0;entryPerimeter=0;" edge="1" parent="WIyWlLk6GJQsqaUBKTNV-1" source="o-zTbQR_hnsr74c10urs-18" target="o-zTbQR_hnsr74c10urs-30">
          <mxGeometry relative="1" as="geometry" />
        </mxCell>
        <mxCell id="o-zTbQR_hnsr74c10urs-32" value="&lt;span style=&quot;font-size: 12px ; background-color: rgb(248 , 249 , 250)&quot;&gt;主进程只有一个app.js入口,但是能添加多个app.js 打包引入。&lt;/span&gt;" style="edgeLabel;html=1;align=center;verticalAlign=middle;resizable=0;points=[];" vertex="1" connectable="0" parent="o-zTbQR_hnsr74c10urs-31">
          <mxGeometry x="-0.1094" y="2" relative="1" as="geometry">
            <mxPoint y="1" as="offset" />
          </mxGeometry>
        </mxCell>
        <mxCell id="o-zTbQR_hnsr74c10urs-18" value="" style="rounded=0;whiteSpace=wrap;html=1;" vertex="1" parent="WIyWlLk6GJQsqaUBKTNV-1">
          <mxGeometry x="1305" y="500" width="330" height="190" as="geometry" />
        </mxCell>
        <mxCell id="o-zTbQR_hnsr74c10urs-19" value="rules/plugins/externals/module" style="rounded=0;whiteSpace=wrap;html=1;" vertex="1" parent="WIyWlLk6GJQsqaUBKTNV-1">
          <mxGeometry x="1325" y="600" width="270" height="60" as="geometry" />
        </mxCell>
        <mxCell id="o-zTbQR_hnsr74c10urs-20" value="entry:src/main/**/app.js" style="rounded=0;whiteSpace=wrap;html=1;" vertex="1" parent="WIyWlLk6GJQsqaUBKTNV-1">
          <mxGeometry x="1325" y="520" width="270" height="60" as="geometry" />
        </mxCell>
        <mxCell id="o-zTbQR_hnsr74c10urs-28" value="" style="rounded=0;whiteSpace=wrap;html=1;" vertex="1" parent="WIyWlLk6GJQsqaUBKTNV-1">
          <mxGeometry x="682.5" y="820" width="335" height="190" as="geometry" />
        </mxCell>
        <mxCell id="o-zTbQR_hnsr74c10urs-39" style="edgeStyle=orthogonalEdgeStyle;rounded=0;orthogonalLoop=1;jettySize=auto;html=1;entryX=0.5;entryY=0;entryDx=0;entryDy=0;" edge="1" parent="WIyWlLk6GJQsqaUBKTNV-1" source="o-zTbQR_hnsr74c10urs-30" target="o-zTbQR_hnsr74c10urs-37">
          <mxGeometry relative="1" as="geometry" />
        </mxCell>
        <mxCell id="o-zTbQR_hnsr74c10urs-30" value="app.js&lt;br&gt;" style="rounded=0;whiteSpace=wrap;html=1;" vertex="1" parent="WIyWlLk6GJQsqaUBKTNV-1">
          <mxGeometry x="1305" y="820" width="355" height="190" as="geometry" />
        </mxCell>
        <mxCell id="o-zTbQR_hnsr74c10urs-34" value="&lt;span&gt;build/render/windows/login.html&lt;/span&gt;" style="rounded=0;whiteSpace=wrap;html=1;" vertex="1" parent="WIyWlLk6GJQsqaUBKTNV-1">
          <mxGeometry x="700" y="840" width="300" height="30" as="geometry" />
        </mxCell>
        <mxCell id="o-zTbQR_hnsr74c10urs-35" value="build/render/windows/dashboard.html" style="rounded=0;whiteSpace=wrap;html=1;" vertex="1" parent="WIyWlLk6GJQsqaUBKTNV-1">
          <mxGeometry x="701" y="890" width="300" height="30" as="geometry" />
        </mxCell>
        <mxCell id="o-zTbQR_hnsr74c10urs-36" value="......build/render/**/*.html" style="rounded=0;whiteSpace=wrap;html=1;" vertex="1" parent="WIyWlLk6GJQsqaUBKTNV-1">
          <mxGeometry x="700" y="940" width="300" height="30" as="geometry" />
        </mxCell>
        <mxCell id="o-zTbQR_hnsr74c10urs-37" value="electron环境" style="rounded=0;whiteSpace=wrap;html=1;" vertex="1" parent="WIyWlLk6GJQsqaUBKTNV-1">
          <mxGeometry x="680" y="1090" width="1300" height="230" as="geometry" />
        </mxCell>
        <mxCell id="o-zTbQR_hnsr74c10urs-40" value="主窗口" style="rounded=0;whiteSpace=wrap;html=1;" vertex="1" parent="WIyWlLk6GJQsqaUBKTNV-1">
          <mxGeometry x="890" y="1170" width="200" height="70" as="geometry" />
        </mxCell>
        <mxCell id="o-zTbQR_hnsr74c10urs-41" value="...其他窗口" style="rounded=0;whiteSpace=wrap;html=1;" vertex="1" parent="WIyWlLk6GJQsqaUBKTNV-1">
          <mxGeometry x="1710" y="1170" width="200" height="70" as="geometry" />
        </mxCell>
        <mxCell id="o-zTbQR_hnsr74c10urs-58" value="" style="endArrow=classic;html=1;entryX=0.5;entryY=0;entryDx=0;entryDy=0;exitX=0.5;exitY=1;exitDx=0;exitDy=0;" edge="1" parent="WIyWlLk6GJQsqaUBKTNV-1" source="o-zTbQR_hnsr74c10urs-28" target="o-zTbQR_hnsr74c10urs-40">
          <mxGeometry relative="1" as="geometry">
            <mxPoint x="890" y="1130" as="sourcePoint" />
            <mxPoint x="990" y="1130" as="targetPoint" />
            <Array as="points" />
          </mxGeometry>
        </mxCell>
        <mxCell id="o-zTbQR_hnsr74c10urs-67" value="" style="endArrow=classic;html=1;" edge="1" parent="WIyWlLk6GJQsqaUBKTNV-1">
          <mxGeometry relative="1" as="geometry">
            <mxPoint x="850" y="1010" as="sourcePoint" />
            <mxPoint x="1720" y="1210" as="targetPoint" />
          </mxGeometry>
        </mxCell>
      </root>
    </mxGraphModel>
  </diagram>
</mxfile>
